<svg width="399" height="81" viewBox="0 0 399 81" fill="none" xmlns="http://www.w3.org/2000/svg">
<g clip-path="url(#clip0_26_15)">
<path d="M51.3824 26.9825L33.1899 77H23.9274L5.87738 26.9825H14.3324L28.8199 69.7325L43.1174 26.9825H51.3824ZM102.455 66.075C102.455 68.07 102.788 69.5267 103.453 70.445C104.118 71.3633 105.147 72.0442 106.54 72.4875L104.593 78.0925C102.439 77.8075 100.555 77.1267 98.9403 76.05C97.3253 74.9417 96.1536 73.2792 95.4253 71.0625C93.6203 73.3742 91.3719 75.1317 88.6803 76.335C85.9886 77.5067 83.0119 78.0925 79.7503 78.0925C74.7469 78.0925 70.8044 76.6833 67.9228 73.865C65.0411 71.0467 63.6003 67.31 63.6003 62.655C63.6003 57.4933 65.6111 53.535 69.6328 50.78C73.6544 48.025 79.4653 46.6475 87.0653 46.6475H94.4278V42.4675C94.4278 38.8575 93.3669 36.3083 91.2453 34.82C89.1553 33.3 86.2419 32.54 82.5053 32.54C80.8586 32.54 78.9269 32.7458 76.7103 33.1575C74.4936 33.5375 72.0869 34.1867 69.4903 35.105L67.4003 29.0725C70.4719 27.9325 73.3536 27.125 76.0453 26.65C78.7369 26.175 81.3019 25.9375 83.7403 25.9375C89.9786 25.9375 94.6494 27.3942 97.7528 30.3075C100.888 33.1892 102.455 37.1158 102.455 42.0875V66.075ZM81.7928 72.0125C84.2628 72.0125 86.6219 71.395 88.8703 70.16C91.1186 68.8933 92.9711 67.1517 94.4278 64.935V52.0625H87.2078C81.6978 52.0625 77.8028 53.0125 75.5228 54.9125C73.2744 56.8125 72.1503 59.3617 72.1503 62.56C72.1503 65.6633 72.9419 68.0225 74.5253 69.6375C76.1403 71.2208 78.5628 72.0125 81.7928 72.0125ZM143.078 6.84249V64.65C143.078 67.12 143.838 68.8775 145.358 69.9225C146.91 70.9358 148.905 71.4425 151.343 71.4425C152.863 71.4425 154.304 71.2842 155.666 70.9675C157.027 70.6508 158.389 70.2233 159.751 69.685L161.888 75.5275C160.527 76.1925 158.832 76.7783 156.806 77.285C154.811 77.8233 152.546 78.0925 150.013 78.0925C145.58 78.0925 141.986 76.8733 139.231 74.435C136.476 71.965 135.098 68.5608 135.098 64.2225V13.16H119.756V6.84249H143.078ZM210.491 5.845L218.471 6.84249V77H211.489L210.729 70.3975C208.86 73.0575 206.707 75.005 204.269 76.24C201.862 77.475 199.281 78.0925 196.526 78.0925C192.188 78.0925 188.609 77 185.791 74.815C182.973 72.63 180.883 69.59 179.521 65.695C178.159 61.7683 177.479 57.2242 177.479 52.0625C177.479 47.0592 178.254 42.5942 179.806 38.6675C181.358 34.7092 183.59 31.6058 186.504 29.3575C189.449 27.0775 192.979 25.9375 197.096 25.9375C199.978 25.9375 202.511 26.4442 204.696 27.4575C206.881 28.4392 208.813 29.8958 210.491 31.8275V5.845ZM199.186 32.35C195.006 32.35 191.792 33.9808 189.544 37.2425C187.295 40.5042 186.171 45.4442 186.171 52.0625C186.171 56.3692 186.63 59.9792 187.549 62.8925C188.467 65.8058 189.813 67.9908 191.586 69.4475C193.391 70.9042 195.592 71.6325 198.189 71.6325C201.039 71.6325 203.461 70.825 205.456 69.21C207.483 67.595 209.161 65.7742 210.491 63.7475V38.7625C209.129 36.7358 207.483 35.1683 205.551 34.06C203.619 32.92 201.498 32.35 199.186 32.35ZM238.004 77V70.8725H245.794V33.11H238.004V26.9825H251.874L253.346 38.81C255.278 34.6933 257.621 31.5108 260.376 29.2625C263.131 27.0142 266.773 25.89 271.301 25.89C272.695 25.89 273.93 26.0008 275.006 26.2225C276.115 26.4125 277.239 26.6658 278.379 26.9825L276.051 34.1075C275.006 33.8225 274.056 33.6167 273.201 33.49C272.346 33.3317 271.365 33.2525 270.256 33.2525C266.425 33.2525 263.131 34.6142 260.376 37.3375C257.621 40.0608 255.421 44.1775 253.774 49.6875V70.8725H263.939V77H238.004ZM270.684 43.8925V33.015L271.491 26.9825H278.379L277.239 43.8925H270.684ZM300.762 54.8175C300.92 58.6808 301.664 61.8475 302.994 64.3175C304.324 66.7558 306.082 68.5608 308.267 69.7325C310.452 70.8725 312.827 71.4425 315.392 71.4425C317.957 71.4425 320.269 71.0625 322.327 70.3025C324.417 69.5425 326.554 68.4183 328.739 66.93L332.492 72.2025C330.149 74.0392 327.473 75.48 324.464 76.525C321.488 77.57 318.432 78.0925 315.297 78.0925C310.452 78.0925 306.319 77 302.899 74.815C299.479 72.63 296.867 69.59 295.062 65.695C293.289 61.7683 292.402 57.2242 292.402 52.0625C292.402 46.9958 293.304 42.4992 295.109 38.5725C296.914 34.6458 299.448 31.5583 302.709 29.31C305.971 27.0617 309.819 25.9375 314.252 25.9375C318.464 25.9375 322.089 26.935 325.129 28.93C328.169 30.8933 330.497 33.7117 332.112 37.385C333.759 41.0267 334.582 45.3808 334.582 50.4475C334.582 51.3025 334.566 52.11 334.534 52.87C334.503 53.5983 334.455 54.2475 334.392 54.8175H300.762ZM314.347 32.4925C310.642 32.4925 307.539 33.8067 305.037 36.435C302.567 39.0633 301.158 43.1325 300.809 48.6425H326.887C326.792 43.2908 325.62 39.2692 323.372 36.5775C321.124 33.8542 318.115 32.4925 314.347 32.4925ZM368.46 71.49C372.291 71.49 375.316 70.7775 377.532 69.3525C379.781 67.8958 380.905 65.9642 380.905 63.5575C380.905 62.0375 380.62 60.7233 380.05 59.615C379.511 58.5067 378.387 57.5092 376.677 56.6225C374.967 55.7358 372.339 54.8492 368.792 53.9625C365.341 53.1075 362.332 52.1258 359.767 51.0175C357.234 49.8775 355.255 48.405 353.83 46.6C352.436 44.795 351.74 42.4517 351.74 39.57C351.74 36.7517 352.531 34.3292 354.115 32.3025C355.73 30.2442 357.962 28.6767 360.812 27.6C363.662 26.4917 366.971 25.9375 370.74 25.9375C374.761 25.9375 378.261 26.4758 381.237 27.5525C384.246 28.5975 386.795 29.8958 388.885 31.4475L385.37 36.8625C383.47 35.5642 381.38 34.5033 379.1 33.68C376.82 32.825 374.065 32.3975 370.835 32.3975C366.908 32.3975 364.121 33.015 362.475 34.25C360.828 35.4533 360.005 37.0208 360.005 38.9525C360.005 40.4092 360.401 41.6283 361.192 42.61C362.016 43.56 363.393 44.4308 365.325 45.2225C367.256 45.9825 369.916 46.8217 373.305 47.74C376.566 48.595 379.401 49.6242 381.807 50.8275C384.246 52.0308 386.146 53.6142 387.507 55.5775C388.869 57.5408 389.55 60.0742 389.55 63.1775C389.55 66.7242 388.536 69.6058 386.51 71.8225C384.483 74.0075 381.855 75.6067 378.625 76.62C375.426 77.6017 372.038 78.0925 368.46 78.0925C363.931 78.0925 360.068 77.4433 356.87 76.145C353.703 74.815 351.043 73.2158 348.89 71.3475L353.45 66.075C355.413 67.69 357.661 69.0042 360.195 70.0175C362.76 70.9992 365.515 71.49 368.46 71.49Z" fill="#B1A9FF"/>
</g>
<defs>
<clipPath id="clip0_26_15">
<rect width="399" height="81" fill="white"/>
</clipPath>
</defs>
</svg>
