<svg width="425" height="80" viewBox="0 0 425 80" fill="none" xmlns="http://www.w3.org/2000/svg">
<g clip-path="url(#clip0_35_5)">
<rect width="425" height="80" fill="white"/>
<path d="M401.489 72.689C405.732 72.689 409.081 71.9001 411.535 70.3222C414.025 68.7092 415.27 66.5703 415.27 63.9053C415.27 62.2222 414.954 60.7671 414.323 59.5398C413.727 58.3125 412.482 57.208 410.588 56.2262C408.695 55.2444 405.785 54.2626 401.857 53.2808C398.035 52.334 394.704 51.247 391.864 50.0197C389.059 48.7574 386.867 47.1269 385.289 45.1282C383.746 43.1295 382.975 40.5348 382.975 37.3439C382.975 34.2231 383.852 31.5407 385.605 29.2965C387.393 27.0173 389.865 25.2816 393.021 24.0894C396.177 22.8622 399.841 22.2485 404.014 22.2485C408.467 22.2485 412.342 22.8446 415.638 24.0368C418.969 25.194 421.792 26.6316 424.106 28.3498L420.214 34.3458C418.11 32.9082 415.796 31.7335 413.271 30.8218C410.746 29.8751 407.696 29.4017 404.119 29.4017C399.771 29.4017 396.685 30.0855 394.862 31.453C393.039 32.7855 392.127 34.5212 392.127 36.6601C392.127 38.2731 392.565 39.6231 393.442 40.7101C394.354 41.762 395.879 42.7263 398.018 43.6029C400.157 44.4445 403.102 45.3737 406.854 46.3906C410.466 47.3373 413.604 48.4769 416.269 49.8094C418.969 51.1418 421.073 52.895 422.581 55.0691C424.088 57.2431 424.842 60.0482 424.842 63.4846C424.842 67.4118 423.72 70.6027 421.476 73.0572C419.232 75.4767 416.322 77.2474 412.745 78.3695C409.203 79.4565 405.451 80 401.489 80C396.475 80 392.197 79.2812 388.655 77.8435C385.149 76.3708 382.204 74.6001 379.819 72.5313L384.869 66.693C387.043 68.4813 389.532 69.9365 392.337 71.0585C395.178 72.1455 398.228 72.689 401.489 72.689Z" fill="#5753C6"/>
<path d="M326.527 54.2275C326.702 58.5054 327.526 62.0119 328.999 64.7469C330.472 67.4469 332.418 69.4456 334.837 70.743C337.257 72.0053 339.887 72.6364 342.727 72.6364C345.567 72.6364 348.127 72.2157 350.406 71.3741C352.72 70.5326 355.087 69.2878 357.507 67.6397L361.662 73.478C359.067 75.5117 356.104 77.1072 352.773 78.2643C349.477 79.4215 346.093 80 342.622 80C337.257 80 332.681 78.7903 328.894 76.3708C325.107 73.9514 322.214 70.5852 320.215 66.2722C318.252 61.9242 317.27 56.8924 317.27 51.1769C317.27 45.5665 318.269 40.5873 320.268 36.2393C322.267 31.8913 325.072 28.4725 328.683 25.9829C332.295 23.4933 336.555 22.2485 341.464 22.2485C346.128 22.2485 350.143 23.3531 353.509 25.5621C356.875 27.7362 359.453 30.8569 361.241 34.9244C363.064 38.9568 363.976 43.7782 363.976 49.3886C363.976 50.3353 363.958 51.2295 363.923 52.071C363.888 52.8775 363.836 53.5963 363.766 54.2275H326.527ZM341.57 29.5069C337.467 29.5069 334.031 30.9621 331.261 33.8725C328.526 36.7828 326.965 41.2886 326.58 47.3899H355.455C355.35 41.464 354.053 37.0108 351.563 34.0303C349.073 31.0147 345.742 29.5069 341.57 29.5069Z" fill="#5753C6"/>
<path d="M257.035 78.7903V72.0053H265.661V30.1907H257.035V23.4057H272.393L274.024 36.5023C276.163 31.9439 278.757 28.4199 281.808 25.9303C284.859 23.4407 288.891 22.1959 293.905 22.1959C295.448 22.1959 296.816 22.3187 298.008 22.5641C299.235 22.7745 300.48 23.055 301.742 23.4057L299.165 31.2952C298.008 30.9796 296.956 30.7517 296.009 30.6114C295.063 30.4361 293.976 30.3485 292.748 30.3485C288.505 30.3485 284.859 31.8562 281.808 34.8718C278.757 37.8874 276.32 42.4458 274.497 48.547V72.0053H285.753V78.7903H257.035ZM293.222 42.1302V30.0855L294.116 23.4057H301.742L300.48 42.1302H293.222Z" fill="#5753C6"/>
<path d="M226.57 0L235.406 1.10453V78.7903H227.674L226.833 71.4793C224.764 74.4247 222.38 76.5812 219.68 77.9487C217.015 79.3162 214.157 80 211.106 80C206.302 80 202.34 78.7903 199.219 76.3708C196.099 73.9514 193.784 70.5851 192.277 66.2722C190.769 61.9242 190.015 56.8924 190.015 51.1769C190.015 45.6366 190.874 40.6925 192.592 36.3445C194.31 31.9614 196.782 28.5251 200.008 26.0355C203.269 23.5108 207.179 22.2485 211.737 22.2485C214.928 22.2485 217.733 22.8096 220.153 23.9316C222.572 25.0186 224.711 26.6316 226.57 28.7705V0ZM214.052 29.3491C209.423 29.3491 205.864 31.1549 203.375 34.7666C200.885 38.3783 199.64 43.8483 199.64 51.1769C199.64 55.9457 200.149 59.943 201.165 63.169C202.182 66.3949 203.673 68.8144 205.636 70.4274C207.635 72.0403 210.072 72.8468 212.947 72.8468C216.103 72.8468 218.785 71.9527 220.995 70.1644C223.239 68.3761 225.097 66.3599 226.57 64.1157V36.4497C225.062 34.2056 223.239 32.4699 221.1 31.2426C218.961 29.9803 216.611 29.3491 214.052 29.3491Z" fill="#5753C6"/>
<path d="M151.923 1.10449V65.115C151.923 67.8501 152.765 69.7962 154.448 70.9533C156.166 72.0754 158.375 72.6364 161.075 72.6364C162.758 72.6364 164.354 72.4611 165.861 72.1104C167.369 71.7598 168.877 71.2864 170.385 70.6903L172.752 77.1597C171.244 77.8961 169.368 78.5448 167.124 79.1058C164.915 79.7019 162.407 80 159.602 80C154.693 80 150.713 78.65 147.663 75.95C144.612 73.2149 143.087 69.4455 143.087 64.6416V8.09989H126.098V1.10449H151.923Z" fill="#5753C6"/>
<path d="M106.941 66.693C106.941 68.9021 107.309 70.515 108.046 71.5319C108.782 72.5488 109.922 73.3027 111.465 73.7936L109.308 80C106.924 79.6844 104.837 78.9306 103.049 77.7384C101.261 76.5111 99.9633 74.6702 99.1568 72.2157C97.1582 74.7754 94.6686 76.7215 91.6881 78.0539C88.7076 79.3513 85.4115 80 81.7998 80C76.2596 80 71.8941 78.4396 68.7032 75.3189C65.5123 72.1981 63.9169 68.0605 63.9169 62.906C63.9169 57.1905 66.1435 52.8074 70.5967 49.7568C75.0499 46.7061 81.4843 45.1808 89.8998 45.1808H98.0523V40.5523C98.0523 36.5549 96.8776 33.7322 94.5283 32.0842C92.214 30.4011 88.9881 29.5595 84.8505 29.5595C83.0271 29.5595 80.8882 29.7874 78.4336 30.2433C75.9791 30.6641 73.3142 31.3829 70.4389 32.3998L68.1246 25.7199C71.5259 24.4576 74.7168 23.5635 77.6973 23.0375C80.6778 22.5115 83.518 22.2485 86.218 22.2485C93.1257 22.2485 98.2978 23.8615 101.734 27.0875C105.205 30.2783 106.941 34.6264 106.941 40.1315V66.693ZM84.0615 73.2676C86.7966 73.2676 89.4089 72.5838 91.8985 71.2163C94.3881 69.8137 96.4393 67.8852 98.0523 65.4307V51.1769H90.0576C83.9563 51.1769 79.6434 52.2288 77.1187 54.3327C74.6291 56.4366 73.3843 59.2593 73.3843 62.8008C73.3843 66.2371 74.2609 68.8495 76.0142 70.6378C77.8025 72.391 80.4849 73.2676 84.0615 73.2676Z" fill="#5753C6"/>
<path d="M50.3879 23.4056L30.2433 78.7903H19.9869L0 23.4056H9.36226L25.4043 70.7429L41.236 23.4056H50.3879Z" fill="#5753C6"/>
</g>
<defs>
<clipPath id="clip0_35_5">
<rect width="425" height="80" fill="white"/>
</clipPath>
</defs>
</svg>
